PathFileType	4	(X/Y/Z)	/home/abdul/Desktop/myosuite/custom_workspace/IK/output/S13_12_1.trc
DataRate	CameraRate	NumFrames	NumMarkers	Units	OrigDataRate	OrigDataStartFrame	OrigNumFrames
200.0	200.0	50	3	mm	200.0	751	1500
Frame#	Time	V_Shoulder			V_Elbow			V_Wrist		
		X1	Y1	Z1	X2	Y2	Z2	X3	Y3	Z3

751	3.75	-84.39960463154056	616.9840819667733	339.62304692561656	-213.35611769649557	490.4797937143039	36.72256153872637	-101.26834167094624	300.61593584003253	178.89550199916914
752	3.755	-84.40353058978174	616.8974851944366	339.59422146249204	-213.24451525448887	490.47134877927374	36.5364755573726	-101.67003475884448	298.68074359175233	176.9146915653668
753	3.76	-84.40631288487988	616.8098955635203	339.56600312087625	-213.12478503249088	490.447465686122	36.35647132428425	-102.06762014279761	296.7569770579365	174.94076937527518
754	3.765	-84.40794054582818	616.7213451638728	339.5384024220727	-212.99685819300947	490.40814631052336	36.18261294631786	-102.46062528489229	294.8458227046595	172.9750869522744
755	3.77	-84.40840330448145	616.6318665636189	339.5114292769113	-212.86067600279233	490.35341771773705	36.014952754093954	-102.84858185896712	292.94842964873345	171.01896741912702
756	3.775	-84.40769160817486	616.541492789674	339.4850929781853	-212.716190114165	490.28333206790603	35.85353136444019	-103.23102695768551	291.0659079171829	169.0737028745196
757	3.78	-84.40579663176698	616.4502573075455	339.4594021937508	-212.5633628291568	490.1979664635444	35.69837777301662	-103.6075042949739	289.1993268474945	167.14055187280752
758	3.785	-84.402710289097	616.3581940004443	339.4343649602991	-212.4021673453921	490.0974227402056	35.549509476291156	-103.97756539977621	287.34971363183143	165.22073701406367
759	3.79	-84.39842524384572	616.265337147728	339.4099886778115	-212.2325879827423	489.9818272014818	35.40693262193519	-104.34077079706918	285.5180520077833	163.31544265108707
760	3.795	-84.39293491979117	616.1717214027025	339.386280104703	-212.05462038976256	489.85133029963333	35.27064218661747	-104.69669117209241	283.70528109759493	161.42581271955885
761	3.8	-84.38623351045003	616.0773817698074	339.3632453536647	-211.8682717289626	489.70610626329017	35.140622180088236	-105.0449085137723	281.9122943971951	159.5529486970501
762	3.805	-84.37831598809646	615.9823535812126	339.34088988820673	-211.67356083999482	489.5463526737992	35.016845874366474	-105.38501723336051	280.1399389157275	157.6979076960826
763	3.81	-84.36917811215062	615.886672472854	339.31921851991183	-211.47051837987752	489.3722899919128	34.89927605677095	-105.71662525436398	278.3890144656698	155.8617006959285
764	3.815	-84.35881643692973	615.7903743599383	339.29823540639876	-211.25918693941165	489.1841610366295	34.78786530546991	-106.03935506991662	276.660273103025	154.0452909173087
765	3.82	-84.34722831875489	615.6934954119457	339.27794405000174	-211.03962113499085	488.98223041810104	34.68255628616688	-106.35284476383134	274.9544187164752	152.24959234361168
766	3.825	-84.33441192240736	615.596072027164	339.25834729716667	-210.81188767505367	488.7667839266121	34.58328206848939	-106.65674899167365	273.272106763809	150.47546839171204
767	3.83	-84.32036622692904	615.4981408067846	339.23944733856456	-210.57606540047715	488.53812787972765	34.489966460604656	-106.95073991831745	271.6139441533761	148.7237307349198
768	3.835	-84.30509103076147	615.3997385285918	339.2212457099228	-210.3322452982662	488.29658842977074	34.40252436055111	-107.23450810857595	269.98048926777597	146.99513828004055
769	3.84	-84.28858695621899	615.3009021202847	339.2037432935728	-210.08053048795284	488.0425108338636	34.32086212274755	-107.50776336764794	268.3722521264733	145.29039629997655
770	3.845	-84.27085545329179	615.2016686324587	339.18694032071136	-209.82103618018255	487.77625868881637	34.24487793812171	-107.77023552828007	266.78969468353205	143.61015572274923
771	3.85	-84.25189880277486	615.1020752112871	339.1708363743731	-209.55388960703232	487.49821313319444	34.1744622262884	-108.02167518171967	265.2332312561925	141.9550125772806
772	3.855	-84.2317201187202	615.0021590709363	339.15543039310836	-209.279229923677	487.20877201892836	34.1094980382026	-108.26185434971879	263.7032290795729	140.3255075957319
773	3.86	-84.2103233502088	614.9019574657513	339.14072067536245	-208.99720808109475	486.9083490548611	34.049861467716376	-108.49056709504741	262.20000898236265	138.7221259716688
774	3.865	-84.18771328244041	614.8015076622482	339.1267048845488	-208.70798666958223	486.59737292464155	33.99542207047824	-108.70763006818345	260.723846177993	137.14529727280328
775	3.87	-84.16389553713931	614.7008469109525	339.11338005480917	-208.41173973293292	486.27628638138475	33.94604328863131	-108.91288298806545	259.2749711654197	135.59539550655498
776	3.875	-84.1388765722745	614.600012418117	339.1007425974513	-208.1086525532178	485.94554532151983	33.90158287979022	-109.10618905502338	257.85357073333626	134.0727393361817
777	3.88	-84.11266368109321	614.499041317363	339.0887883080564	-207.79892140619768	485.6056178402405	33.86189334880771	-109.2874352942398	256.45978906135156	132.57759244475142
778	3.885	-84.08526499046762	614.3979706412769	339.07751237424344	-207.48275328748875	485.25698327095904	33.82682238087804	-109.45653282833854	255.09372891141982	131.11016404376767
779	3.89	-84.0566894585541	614.2968372930053	339.06690938408167	-207.16036560969843	484.90013121114725	33.796213274567044	-109.61341707795063	253.75545290259626	129.6706095228194
780	3.895	-84.02694687176576	614.195678017885	339.05697333513666	-206.83198587084723	484.5355605369166	33.76990537340653	-109.75804788936418	252.44498486201698	128.25903123620267
781	3.9	-83.9960478410588	614.0945293751465	339.0476976441383	-206.49785129449123	484.1637784086637	33.74773449474345	-109.8904095886285	251.16231124485972	126.87547942206393
782	3.905	-83.96400379753395	613.9934277097311	339.0390751572566	-206.15820844206388	483.78529927006474	33.72953335459203	-110.01051096174801	249.90738261593862	125.51995324923423
783	3.91	-83.9308269873544	613.8924091242592	339.03109816096963	-205.81331279805696	483.40064384266395	33.715131987298285	-110.11838516087207	248.680115185518	124.19240198657118
784	3.915	-83.89653046598242	613.7915094511882	339.02375839350833	-205.4634283287669	483.0103381182537	33.70435815889202	-110.21408953665737	247.48039239189671	122.89272628929356
785	3.92	-83.86112809173714	613.6907642251998	339.0170470568627	-205.10882701543687	482.6149123511943	33.6970377730697	-110.2977053972511	246.3080665233186	121.62077959648931
786	3.925	-83.82463451867604	613.5902086558528	339.0109548293314	-204.74978836273016	482.2149000527694	33.69299526882317	-110.36933769461487	245.16296037179978	120.37636963369803
787	3.93	-83.78706518880365	613.4898776005415	339.00547187859735	-204.38659888357486	481.8108369896146	33.69205400880223	-110.42911463917915	244.04486891153573	119.15926001421599
788	3.935	-83.74843632361137	613.3898055377953	339.0005878753107	-204.01955156152468	481.4032601882029	33.69403665757523	-110.4771872440848	242.95356099465315	117.96917193254497
789	3.94	-83.70876491495187	613.2900265409585	338.9962920071605	-203.6489452918812	480.99270694730524	33.69876554902766	-110.51372880053262	241.8887810572066	116.80578594320735
790	3.945	-83.66806871525357	613.1905742522853	338.9925729934139	-203.27508430292477	480.5797138602901	33.70606304221689	-110.53893428601992	240.85025082848418	115.66874381797749
791	3.95	-83.62636622707932	613.0914818574875	338.9894190999051	-202.89827755869834	480.1648158490582	33.71575186507868	-110.55301970749657	239.8376710368802	114.55765047443485
792	3.955	-83.58367669203521	612.9927820607694	338.98681815445	-202.51883814488238	479.7485452113476	33.72765544545904	-110.55622138171834	238.85072310581216	113.4720759686267
793	3.96	-83.54002007903551	612.8945070603844	338.98475756266777	-202.13708263939048	479.33143068308163	33.741598229022216	-110.54879515531431	237.88907083340592	112.41155754453806
794	3.965	-83.49541707192952	612.796688524751	338.98322432418576	-201.7533304694015	478.9139965173684	33.757405983661734	-110.53101556731286	236.95236204994188	111.37560173300356
795	3.97	-83.44988905649792	612.6993575691553	338.9822050492062	-201.36790325662452	478.49676158169547	33.77490609011656	-110.50317495709072	236.0402302473453	110.36368649265903
796	3.975	-83.40345810682525	612.6025447330804	338.9816859754122	-200.98112415267025	478.08023847480644	33.79392781856714	-110.46558252091663	235.15229617531517	109.37526338552027
797	3.98	-83.35614697105649	612.5062799581884	338.981652985189	-200.59331716647085	477.66493266467694	33.81430259105749	-110.41856332045768	234.28816939901378	108.4097597797926
798	3.985	-83.30797905654639	612.4105925669866	338.9820916231378	-200.20480648575443	477.2513416489513	33.83586422965743	-110.36245724679935	233.44744981358377	107.46658107255504
799	3.99	-83.25897841440963	612.3155112422111	338.98298711385775	-199.81591579463577	476.8399541391392	33.8584491903452	-110.2976179436998	232.62972911111544	106.54511292502886
800	3.995	-83.20916972348175	612.221064006953	338.98432437997224	-199.42696758943373	476.43124926981227	33.88189678265271	-110.22441169395387	231.8345921960564	105.6447235032291
